<svg width="32" height="32" viewBox="0 0 32 32" xmlns="http://www.w3.org/2000/svg">
  <rect width="32" height="32" rx="8" fill="#16352a"/>
  <g transform="translate(4,4)" fill="none">
    <path d="M12 21V11" stroke="#dcc05a" stroke-width="1.8" stroke-linecap="round"/>
    <path d="M12 11C12 11 8 10.5 6.5 8.5C5 6.5 5.5 4 5.5 4C5.5 4 8.5 4.2 10 6.2C11.5 8.2 12 11 12 11Z" fill="#dcc05a"/>
    <path d="M12 13C12 13 15.2 12.6 16.6 11C18 9.4 17.6 7.2 17.6 7.2C17.6 7.2 14.8 7.4 13.4 9C12 10.6 12 13 12 13Z" fill="#dcc05a" fill-opacity="0.7"/>
  </g>
</svg>
